<svg width="40" height="40" viewBox="0 0 40 40" fill="none" xmlns="http://www.w3.org/2000/svg">
<g clip-path="url(#clip0_1898_144)">
<path d="M39.7073 38.2927L29.7073 28.2927C29.7027 28.288 29.6966 28.2866 29.692 28.2827C32.3634 25.28 34 21.336 34 17C34 7.61133 26.3887 0 17 0C7.61133 0 0 7.61133 0 17C0 26.3887 7.61133 34 17 34C21.336 34 25.2793 32.3634 28.2827 29.6913C28.2873 29.696 28.2887 29.702 28.2927 29.7066L38.2927 39.7066C38.488 39.9027 38.744 40 39 40C39.256 40 39.512 39.9027 39.7073 39.7073C40.0973 39.3166 40.0973 38.6834 39.7073 38.2927ZM17 32C8.7293 32 2 25.2707 2 17C2 8.7293 8.7293 2 17 2C25.2707 2 32 8.7293 32 17C32 25.2707 25.2707 32 17 32Z" fill="black"/>
</g>
<defs>
<clipPath id="clip0_1898_144">
<rect width="40" height="40" fill="white"/>
</clipPath>
</defs>
</svg>
