<svg width="64" height="64" viewBox="0 0 64 64" fill="none" xmlns="http://www.w3.org/2000/svg">
<path d="M44.8004 16.0002H32.0004V22.4002H44.8004V16.0002ZM44.8004 25.6002H32.0004V28.8002H44.8004V25.6002ZM28.8004 16.0002H19.2004V28.8002H28.8004V16.0002ZM28.8004 35.2002H44.8004V32.0002H28.8004V35.2002ZM38.4004 41.6002H44.8004V38.4002H38.4004V41.6002ZM44.8004 44.8002H19.2004V48.0002H44.8004V44.8002ZM35.2004 38.4002H19.2004V41.6002H35.2004V38.4002ZM25.6004 32.0002H19.2004V35.2002H25.6004V32.0002ZM54.4004 3.2002H9.60039C8.7517 3.2002 7.93777 3.53734 7.33765 4.13745C6.73753 4.73757 6.40039 5.5515 6.40039 6.4002V57.6002C6.40039 58.4489 6.73753 59.2628 7.33765 59.8629C7.93777 60.4631 8.7517 60.8002 9.60039 60.8002H54.4004C55.2491 60.8002 56.063 60.4631 56.6631 59.8629C57.2633 59.2628 57.6004 58.4489 57.6004 57.6002V6.4002C57.6004 5.5515 57.2633 4.73757 56.6631 4.13745C56.063 3.53734 55.2491 3.2002 54.4004 3.2002ZM51.2004 54.4002H12.8004V9.6002H51.2004V54.4002Z" fill="black"/>
</svg>
