<svg width="64" height="64" viewBox="0 0 64 64" fill="none" xmlns="http://www.w3.org/2000/svg">
<path d="M48 24V16M48 16V8M48 16H40M48 16H56M49.3333 56C26.5056 56 8 37.4944 8 14.6667C8 13.6367 8.03768 12.6156 8.11171 11.6046C8.19667 10.4443 8.23915 9.86419 8.5432 9.33608C8.79504 8.89869 9.24133 8.48389 9.69595 8.26467C10.2448 8 10.885 8 12.1654 8H19.6782C20.7549 8 21.2932 8 21.7547 8.1772C22.1624 8.33373 22.5254 8.58797 22.8118 8.9176C23.136 9.29075 23.32 9.79669 23.688 10.8086L26.7976 19.3601C27.2256 20.5374 27.4397 21.1261 27.4035 21.6845C27.3715 22.177 27.2032 22.6509 26.9179 23.0535C26.5943 23.5101 26.0572 23.8323 24.983 24.4769L21.3333 26.6667C24.5384 33.7304 30.2669 39.4664 37.3333 42.6667L39.5232 39.0171C40.1677 37.9427 40.4899 37.4056 40.9464 37.0821C41.3491 36.7968 41.8229 36.6285 42.3155 36.5965C42.8739 36.5603 43.4627 36.7744 44.64 37.2024L53.1915 40.312C54.2032 40.68 54.7093 40.864 55.0824 41.1883C55.412 41.4747 55.6664 41.8376 55.8227 42.2453C56 42.7067 56 43.2451 56 44.3219V51.8347C56 53.1149 56 53.7552 55.7352 54.304C55.516 54.7587 55.1013 55.2051 54.664 55.4568C54.1357 55.7608 53.5557 55.8032 52.3955 55.8883C51.3843 55.9624 50.3632 56 49.3333 56Z" stroke="black" stroke-width="5.33333" stroke-linecap="round" stroke-linejoin="round"/>
</svg>
